<?xml version="1.0" encoding="UTF-8"?><svg xmlns="http://www.w3.org/2000/svg" width="1320" height="820" viewBox="0 0 1320 820" role="img" aria-labelledby="title desc"><defs><marker id="a" viewBox="0 0 10 10" refX="9" refY="5" markerWidth="8" markerHeight="8" orient="auto"><path d="M0 0L10 5L0 10z" fill="#647487"/></marker><style>text{font-family:Malgun Gothic,Apple SD Gothic Neo,sans-serif;fill:#172331}.t{font-size:32px;font-weight:700}.s{font-size:17px;fill:#556577}.h{font-size:20px;font-weight:700}.b{font-size:15px}.n{font-size:13px;fill:#57687a}.c{fill:#fff;stroke:#ccd6df;stroke-width:1.4}.a{fill:none;stroke:#647487;stroke-width:2.4;marker-end:url(#a)}</style></defs><rect width="1320" height="820" fill="#f7f9fc"/><rect width="1320" height="8" fill="#2875a8"/><title id="title">Protocol 이벤트 수집 파이프라인</title><desc id="desc">Packetbeat에서 OpenSearch Dashboards까지의 검증 지점</desc><text x="55" y="60" class="t">Protocol 이벤트 수집 파이프라인</text><text x="55" y="92" class="s">Packetbeat에서 OpenSearch Dashboards까지의 검증 지점</text><g><rect x="55" y="155" width="284" height="520" rx="16" fill="#e8f2fb" stroke="#3979ad" stroke-width="1.7"/><text x="77" y="197" class="h">Docker traffic</text><rect x="73" y="230" width="248" height="87" rx="10" class="c"/><text x="89" y="258" class="b">capture interface·BPF</text><text x="89" y="279" class="n">보이는 범위를 제한</text><rect x="73" y="335" width="248" height="87" rx="10" class="c"/><text x="89" y="363" class="b">암호화 payload</text><text x="89" y="384" class="n">decode 범위 제한</text></g><path d="M340 420H358" class="a"/><g><rect x="364" y="155" width="284" height="520" rx="16" fill="#eef7f0" stroke="#4d8b61" stroke-width="1.7"/><text x="386" y="197" class="h">Packetbeat</text><rect x="382" y="230" width="248" height="87" rx="10" class="c"/><text x="398" y="258" class="b">지원 protocol decode</text><text x="398" y="279" class="n">transaction event 생성</text><rect x="382" y="335" width="248" height="66" rx="10" class="c"/><text x="398" y="363" class="b">모든 raw packet 저장 아님</text></g><path d="M648 420H667" class="a"/><g><rect x="672" y="155" width="284" height="520" rx="16" fill="#fff4e6" stroke="#b7792d" stroke-width="1.7"/><text x="694" y="197" class="h">Logstash·OpenSearch</text><rect x="690" y="230" width="248" height="87" rx="10" class="c"/><text x="706" y="258" class="b">parse·output plugin</text><text x="706" y="279" class="n">버전 조합 고정</text><rect x="690" y="335" width="248" height="87" rx="10" class="c"/><text x="706" y="363" class="b">index·sample document</text><text x="706" y="384" class="n">build와 별도 검증</text></g><path d="M956 420H976" class="a"/><g><rect x="980" y="155" width="284" height="520" rx="16" fill="#f2edfb" stroke="#7357b8" stroke-width="1.7"/><text x="1002" y="197" class="h">조회</text><rect x="998" y="230" width="248" height="87" rx="10" class="c"/><text x="1014" y="258" class="b">OpenSearch Dashboards</text><text x="1014" y="279" class="n">index query 확인</text><rect x="998" y="335" width="248" height="87" rx="10" class="c"/><text x="1014" y="363" class="b">Grafana</text><text x="1014" y="384" class="n">datasource 검토 후 보류</text></g><rect x="55" y="715" width="1210" height="55" rx="11" fill="#fff" stroke="#d2dae3"/><text x="78" y="748" class="b">TLS mode, host network DNS, OSS client 호환성을 서로 다른 장애 경계로 확인한다.</text></svg>